<svg class="forecast-icon" width="63" height="31" viewBox="0 0 63 31" fill="none" xmlns="http://www.w3.org/2000/svg">
<path d="M57 18.0364C57 28.7079 51.8182 31 44.9351 31H6.90909C4.01147 31 2.21301 30.936 0.810348 27.9812C0.797439 27.9549 0.785373 27.9292 0.774142 27.9041C-1.35754 23.3152 1.38081 17.325 3.35751 14.4667C7.25539 8.8303 15.3606 9.08081 19.8772 11.4606C19.6916 6.88889 21.4909 0 31.014 0C40.3598 0 41.5073 6.85885 41.252 10.2303C44.171 7.23062 57 6.2145 57 18.0364Z" fill="white"/>
<path d="M63 13.8C63 21.3733 59.3636 23 54.5334 23H27.8485C25.8151 23 24.553 22.9546 23.5687 20.8576C23.5596 20.839 23.5511 20.8207 23.5433 20.8029C22.0473 17.5463 23.969 13.2951 25.3561 11.2667C28.0915 7.26666 33.7793 7.44444 36.9489 9.13333C36.8186 5.88889 38.0813 1 44.7642 1C51.3227 1 52.1279 5.86758 51.9488 8.26023C53.9972 6.1314 63 5.41029 63 13.8Z" fill="white" fill-opacity="0.5"/>
<path d="M12 15.8C12 23.3733 15.5455 25 20.255 25H46.2727C48.2553 25 49.4858 24.9546 50.4456 22.8576C50.4544 22.839 50.4626 22.8207 50.4703 22.8029C51.9288 19.5463 50.0552 15.2951 48.7028 13.2667C46.0358 9.26666 40.4901 9.44444 37.3998 11.1333C37.5268 7.88889 36.2957 3 29.7799 3C23.3854 3 22.6003 7.86758 22.7749 10.2602C20.7778 8.1314 12 7.41028 12 15.8Z" fill="white" fill-opacity="0.5"/>
</svg>
