<svg width="5120" height="929" viewBox="0 0 5120 929" fill="none" xmlns="http://www.w3.org/2000/svg">
<path d="M1962.37 241.396C2062.23 187.846 2309.71 98.8351 2500.78 171.195C2572.79 198.468 2637.82 241.45 2701.84 285.709C2850.15 388.24 2993.09 497.625 3205.16 434.447C3436.94 332.631 3948.6 108.909 4187 285.709C4485 506.709 4772 648.5 5302 698C5726 737.6 5386.67 1027.17 5164 1167L3032.44 938H1903L-73.5 1051V135C13 20.8332 271.7 -44.1 704.5 35.5C1245.5 135 1256.5 285.709 1461 350C1624.6 401.432 1863.42 299.027 1962.37 241.396Z" fill="#CDE097"/>
</svg>
