<svg width="57" height="50" viewBox="0 0 57 50" fill="none" xmlns="http://www.w3.org/2000/svg">
<path d="M55 26C55 39.2548 44.337 50 31.1834 50C30.3367 50 29.5003 49.9555 28.6764 49.8686C-0.302893 46.8137 64.5266 44.3107 31.1834 2C44.337 2 55 12.7452 55 26Z" fill="url(#paint0_radial_81_4)"/>
<path d="M44 33.9636C44 42.2254 40 44 34.6867 44H5.33333C3.09658 44 1.70829 43.9505 0.625532 41.6629C0.615567 41.6425 0.606253 41.6226 0.597583 41.6032C-1.04793 38.0505 1.06589 33.4129 2.59176 31.2C5.60065 26.8364 11.8573 27.0303 15.3438 28.8727C15.2005 25.3333 16.5894 20 23.9406 20C31.155 20 32.0407 25.3101 31.8437 27.9203C34.0969 25.5979 44 24.8112 44 33.9636Z" fill="white" fill-opacity="0.6"/>
<path d="M57 31.0364C57 41.7079 52.0909 44 45.5701 44H9.54545C6.80034 44 5.09654 43.936 3.7677 40.9812C3.75547 40.9549 3.74404 40.9292 3.7334 40.9041C1.71391 36.3152 4.30814 30.325 6.1808 27.4667C9.87353 21.8303 17.5521 22.0808 21.831 24.4606C21.6552 19.8889 23.3598 13 32.3817 13C41.2356 13 42.3227 19.8589 42.0809 23.2303C44.8462 20.2306 57 19.2145 57 31.0364Z" fill="white" fill-opacity="0.5"/>
<defs>
<radialGradient id="paint0_radial_81_4" cx="0" cy="0" r="1" gradientUnits="userSpaceOnUse" gradientTransform="translate(34.944 26.5052) rotate(90) scale(24 23.8166)">
<stop offset="0.296875" stop-color="#FFFCE6"/>
<stop offset="1" stop-color="#FFF0BC"/>
</radialGradient>
</defs>
</svg>
