<svg width="43" height="40" viewBox="0 0 43 40" fill="none" xmlns="http://www.w3.org/2000/svg">
<path d="M8.72131 25.2844C10.3386 24.7463 10.5514 23.4318 10.8335 22.5876C10.5168 23.9691 10.8483 24.9388 10.9927 25.805C11.137 26.6712 10.5036 27.943 9.25409 27.9815C8.0079 28.0199 7.25872 27.0513 7.24828 26.7354C7.23784 26.4195 7.15528 25.8054 8.72131 25.2844Z" fill="#3DB9FF"/>
<path d="M16.7213 27.2844C18.3386 26.7463 18.5514 25.4318 18.8335 24.5876C18.5168 25.9691 18.8483 26.9388 18.9927 27.805C19.137 28.6712 18.5036 29.943 17.2541 29.9815C16.0079 30.0199 15.2587 29.0513 15.2483 28.7354C15.2378 28.4195 15.1553 27.8054 16.7213 27.2844Z" fill="#3DB9FF"/>
<path d="M26.7213 25.2844C28.3386 24.7463 28.5514 23.4318 28.8335 22.5876C28.5168 23.9691 28.8483 24.9388 28.9927 25.805C29.137 26.6712 28.5036 27.943 27.2541 27.9815C26.0079 28.0199 25.2587 27.0513 25.2483 26.7354C25.2378 26.4195 25.1553 25.8054 26.7213 25.2844Z" fill="#3DB9FF"/>
<path d="M34.7213 28.2844C36.3386 27.7463 36.5514 26.4318 36.8335 25.5876C36.5168 26.9691 36.8483 27.9388 36.9927 28.805C37.137 29.6712 36.5036 30.943 35.2541 30.9815C34.0079 31.0199 33.2587 30.0513 33.2483 29.7354C33.2378 29.4195 33.1553 28.8054 34.7213 28.2844Z" fill="#3DB9FF"/>
<path d="M1.72131 31.2844C3.33863 30.7463 3.55141 29.4318 3.83348 28.5876C3.51677 29.9691 3.84833 30.9388 3.99266 31.805C4.13698 32.6712 3.5036 33.943 2.25409 33.9815C1.0079 34.0199 0.258719 33.0513 0.248279 32.7354C0.237839 32.4195 0.155283 31.8054 1.72131 31.2844Z" fill="#3DB9FF"/>
<path d="M10.7213 35.2844C12.3386 34.7463 12.5514 33.4318 12.8335 32.5876C12.5168 33.9691 12.8483 34.9388 12.9927 35.805C13.137 36.6712 12.5036 37.943 11.2541 37.9815C10.0079 38.0199 9.25872 37.0513 9.24828 36.7354C9.23784 36.4195 9.15528 35.8054 10.7213 35.2844Z" fill="#3DB9FF"/>
<path d="M20.7213 33.2844C22.3386 32.7463 22.5514 31.4318 22.8335 30.5876C22.5168 31.9691 22.8483 32.9388 22.9927 33.805C23.137 34.6712 22.5036 35.943 21.2541 35.9815C20.0079 36.0199 19.2587 35.0513 19.2483 34.7354C19.2378 34.4195 19.1553 33.8054 20.7213 33.2844Z" fill="#3DB9FF"/>
<path d="M29.7213 36.2844C31.3386 35.7463 31.5514 34.4318 31.8335 33.5876C31.5168 34.9691 31.8483 35.9388 31.9927 36.805C32.137 37.6712 31.5036 38.943 30.2541 38.9815C29.0079 39.0199 28.2587 38.0513 28.2483 37.7354C28.2378 37.4195 28.1553 36.8054 29.7213 36.2844Z" fill="#3DB9FF"/>
<path d="M43 13.3818C43 21.2994 39.0395 23 33.7786 23H4.71485C1.81045 23 1.0853 20.54 0.732456 19.7744C-0.896821 16.3698 0.489506 12.854 2.00032 10.7333C4.97953 6.55151 11.1744 6.73737 14.6265 8.50303C14.4847 5.11111 15.8599 0 23.1386 0C30.2817 0 31.1587 5.08883 30.9636 7.59024C33.1946 5.36465 43 4.61075 43 13.3818Z" fill="white"/>
</svg>
