<svg width="44" height="39" viewBox="0 0 44 39" fill="none" xmlns="http://www.w3.org/2000/svg">
<path d="M12.9259 19V26.3333M10.2609 19.7204L15.4463 24.9058M15.4059 19.7204L10.2205 24.9058M16.5 22.7593H9.16669M3.75925 21.75V29.0833M1.0942 22.4704L6.27965 27.6558M6.23924 22.4704L1.05379 27.6558M7.33333 25.5093H0M31.2592 19V26.3333M28.5942 19.7204L33.7797 24.9058M33.7392 19.7204L28.5538 24.9058M34.8333 22.7593H27.5M22.0926 21.75V29.0833M19.4275 22.4704L24.613 27.6558M24.5726 22.4704L19.3871 27.6558M25.6666 25.5093H18.3333M21.1759 38.25V30.9167M18.5109 37.5296L23.6963 32.3442M23.6559 37.5296L18.4705 32.3442M24.75 34.4907H17.4167M12.0092 35.5V28.1667M9.3442 34.7796L14.5297 29.5942M14.4892 34.7796L9.30379 29.5942M15.5833 31.7407H8.25M30.3426 35.5V28.1667M27.6775 34.7796L32.863 29.5942M32.8226 34.7796L27.6371 29.5942M33.9166 31.7407H26.5833M39.4259 29V21.6667M36.7609 28.2796L41.9463 23.0942M41.9059 28.2796L36.7205 23.0942M43 25.2407H35.6667" stroke="white"/>
<path d="M44 13.3818C44 21.2994 40.0395 23 34.7786 23H5.71485C2.81045 23 2.0853 20.54 1.73246 19.7744C0.103179 16.3698 1.48951 12.854 3.00032 10.7333C5.97953 6.55151 12.1744 6.73737 15.6265 8.50303C15.4847 5.11111 16.8599 0 24.1386 0C31.2817 0 32.1587 5.08883 31.9636 7.59024C34.1946 5.36465 44 4.61075 44 13.3818Z" fill="white"/>
</svg>
