<svg width="352" height="171" viewBox="0 0 352 171" fill="none" xmlns="http://www.w3.org/2000/svg">
<g filter="url(#filter0_f_78_6)">
<path d="M104.5 65L105.51 68.1094H108.78L106.135 70.0312L107.145 73.1406L104.5 71.2188L101.855 73.1406L102.865 70.0312L100.22 68.1094H103.49L104.5 65Z" fill="#FFFCE2" fill-opacity="0.75"/>
</g>
<g filter="url(#filter1_f_78_6)">
<path d="M136 107L137.347 111.146H141.706L138.18 113.708L139.527 117.854L136 115.292L132.473 117.854L133.82 113.708L130.294 111.146H134.653L136 107Z" fill="#FFFCE2" fill-opacity="0.4"/>
</g>
<g filter="url(#filter2_f_78_6)">
<path d="M204 47L205.347 51.1459H209.706L206.18 53.7082L207.527 57.8541L204 55.2918L200.473 57.8541L201.82 53.7082L198.294 51.1459H202.653L204 47Z" fill="#FFFCE2" fill-opacity="0.75"/>
</g>
<g filter="url(#filter3_f_78_6)">
<path d="M197.5 95L198.286 97.4184H200.829L198.771 98.9131L199.557 101.332L197.5 99.8369L195.443 101.332L196.229 98.9131L194.171 97.4184H196.714L197.5 95Z" fill="#FFFCE2" fill-opacity="0.5"/>
</g>
<g filter="url(#filter4_f_78_6)">
<path d="M255 69L257.245 75.9098H264.511L258.633 80.1803L260.878 87.0902L255 82.8197L249.122 87.0902L251.367 80.1803L245.489 75.9098H252.755L255 69Z" fill="#FFFCE2" fill-opacity="0.6"/>
</g>
<g filter="url(#filter5_f_78_6)">
<path d="M271 125L272.347 129.146H276.706L273.18 131.708L274.527 135.854L271 133.292L267.473 135.854L268.82 131.708L265.294 129.146H269.653L271 125Z" fill="#FFFCE2" fill-opacity="0.4"/>
</g>
<g opacity="0.3" filter="url(#filter6_f_78_6)">
<path d="M325 158L326.347 162.146H330.706L327.18 164.708L328.527 168.854L325 166.292L321.473 168.854L322.82 164.708L319.294 162.146H323.653L325 158Z" fill="#FFFCE2" fill-opacity="0.4"/>
</g>
<g filter="url(#filter7_f_78_6)">
<path d="M285 41L285.674 43.0729H287.853L286.09 44.3541L286.763 46.4271L285 45.1459L283.237 46.4271L283.91 44.3541L282.147 43.0729H284.326L285 41Z" fill="#FFFCE2" fill-opacity="0.6"/>
</g>
<g filter="url(#filter8_f_78_6)">
<path d="M313 89L314.347 93.1459H318.706L315.18 95.7082L316.527 99.8541L313 97.2918L309.473 99.8541L310.82 95.7082L307.294 93.1459H311.653L313 89Z" fill="#FFFCE2" fill-opacity="0.5"/>
</g>
<g filter="url(#filter9_f_78_6)">
<path d="M339.5 2L341.857 9.25532H349.486L343.314 13.7394L345.672 20.9947L339.5 16.5106L333.328 20.9947L335.686 13.7394L329.514 9.25532H337.143L339.5 2Z" fill="#FFFCE2" fill-opacity="0.75"/>
</g>
<g filter="url(#filter10_f_78_6)">
<path d="M160 65L161.347 69.1459H165.706L162.18 71.7082L163.527 75.8541L160 73.2918L156.473 75.8541L157.82 71.7082L154.294 69.1459H158.653L160 65Z" fill="#FFFCE2" fill-opacity="0.6"/>
</g>
<g filter="url(#filter11_f_78_6)">
<path d="M33 66L34.3471 70.1459H38.7063L35.1796 72.7082L36.5267 76.8541L33 74.2918L29.4733 76.8541L30.8204 72.7082L27.2937 70.1459H31.6529L33 66Z" fill="#FFFCE2" fill-opacity="0.6"/>
</g>
<g filter="url(#filter12_f_78_6)">
<path d="M6.5 14L7.51031 17.1094H10.7798L8.13472 19.0312L9.14503 22.1406L6.5 20.2188L3.85497 22.1406L4.86528 19.0312L2.22025 17.1094H5.48969L6.5 14Z" fill="#FFFCE2" fill-opacity="0.75"/>
</g>
<g filter="url(#filter13_f_78_6)">
<path d="M66 22L68.0206 28.2188H74.5595L69.2694 32.0623L71.2901 38.2812L66 34.4377L60.7099 38.2812L62.7306 32.0623L57.4405 28.2188H63.9794L66 22Z" fill="#FFFCE2" fill-opacity="0.6"/>
</g>
<g filter="url(#filter14_f_78_6)">
<path d="M76 119L77.3471 123.146H81.7063L78.1796 125.708L79.5267 129.854L76 127.292L72.4733 129.854L73.8204 125.708L70.2937 123.146H74.6529L76 119Z" fill="#FFFCE2" fill-opacity="0.4"/>
</g>
<g opacity="0.3" filter="url(#filter15_f_78_6)">
<path d="M17 139L18.3471 143.146H22.7063L19.1796 145.708L20.5267 149.854L17 147.292L13.4733 149.854L14.8204 145.708L11.2937 143.146H15.6529L17 139Z" fill="#FFFCE2" fill-opacity="0.3"/>
</g>
<defs>
<filter id="filter0_f_78_6" x="98.2203" y="63" width="12.5595" height="12.1406" filterUnits="userSpaceOnUse" color-interpolation-filters="sRGB">
<feFlood flood-opacity="0" result="BackgroundImageFix"/>
<feBlend mode="normal" in="SourceGraphic" in2="BackgroundImageFix" result="shape"/>
<feGaussianBlur stdDeviation="1" result="effect1_foregroundBlur_78_6"/>
</filter>
<filter id="filter1_f_78_6" x="128.294" y="105" width="15.4127" height="14.8541" filterUnits="userSpaceOnUse" color-interpolation-filters="sRGB">
<feFlood flood-opacity="0" result="BackgroundImageFix"/>
<feBlend mode="normal" in="SourceGraphic" in2="BackgroundImageFix" result="shape"/>
<feGaussianBlur stdDeviation="1" result="effect1_foregroundBlur_78_6"/>
</filter>
<filter id="filter2_f_78_6" x="196.294" y="45" width="15.4127" height="14.8541" filterUnits="userSpaceOnUse" color-interpolation-filters="sRGB">
<feFlood flood-opacity="0" result="BackgroundImageFix"/>
<feBlend mode="normal" in="SourceGraphic" in2="BackgroundImageFix" result="shape"/>
<feGaussianBlur stdDeviation="1" result="effect1_foregroundBlur_78_6"/>
</filter>
<filter id="filter3_f_78_6" x="192.171" y="93" width="10.6573" height="10.3316" filterUnits="userSpaceOnUse" color-interpolation-filters="sRGB">
<feFlood flood-opacity="0" result="BackgroundImageFix"/>
<feBlend mode="normal" in="SourceGraphic" in2="BackgroundImageFix" result="shape"/>
<feGaussianBlur stdDeviation="1" result="effect1_foregroundBlur_78_6"/>
</filter>
<filter id="filter4_f_78_6" x="243.489" y="67" width="23.0212" height="22.0902" filterUnits="userSpaceOnUse" color-interpolation-filters="sRGB">
<feFlood flood-opacity="0" result="BackgroundImageFix"/>
<feBlend mode="normal" in="SourceGraphic" in2="BackgroundImageFix" result="shape"/>
<feGaussianBlur stdDeviation="1" result="effect1_foregroundBlur_78_6"/>
</filter>
<filter id="filter5_f_78_6" x="263.294" y="123" width="15.4126" height="14.8541" filterUnits="userSpaceOnUse" color-interpolation-filters="sRGB">
<feFlood flood-opacity="0" result="BackgroundImageFix"/>
<feBlend mode="normal" in="SourceGraphic" in2="BackgroundImageFix" result="shape"/>
<feGaussianBlur stdDeviation="1" result="effect1_foregroundBlur_78_6"/>
</filter>
<filter id="filter6_f_78_6" x="317.294" y="156" width="15.4126" height="14.8541" filterUnits="userSpaceOnUse" color-interpolation-filters="sRGB">
<feFlood flood-opacity="0" result="BackgroundImageFix"/>
<feBlend mode="normal" in="SourceGraphic" in2="BackgroundImageFix" result="shape"/>
<feGaussianBlur stdDeviation="1" result="effect1_foregroundBlur_78_6"/>
</filter>
<filter id="filter7_f_78_6" x="280.147" y="39" width="9.7063" height="9.42705" filterUnits="userSpaceOnUse" color-interpolation-filters="sRGB">
<feFlood flood-opacity="0" result="BackgroundImageFix"/>
<feBlend mode="normal" in="SourceGraphic" in2="BackgroundImageFix" result="shape"/>
<feGaussianBlur stdDeviation="1" result="effect1_foregroundBlur_78_6"/>
</filter>
<filter id="filter8_f_78_6" x="305.294" y="87" width="15.4126" height="14.8541" filterUnits="userSpaceOnUse" color-interpolation-filters="sRGB">
<feFlood flood-opacity="0" result="BackgroundImageFix"/>
<feBlend mode="normal" in="SourceGraphic" in2="BackgroundImageFix" result="shape"/>
<feGaussianBlur stdDeviation="1" result="effect1_foregroundBlur_78_6"/>
</filter>
<filter id="filter9_f_78_6" x="327.514" y="0" width="23.9722" height="22.9947" filterUnits="userSpaceOnUse" color-interpolation-filters="sRGB">
<feFlood flood-opacity="0" result="BackgroundImageFix"/>
<feBlend mode="normal" in="SourceGraphic" in2="BackgroundImageFix" result="shape"/>
<feGaussianBlur stdDeviation="1" result="effect1_foregroundBlur_78_6"/>
</filter>
<filter id="filter10_f_78_6" x="152.294" y="63" width="15.4127" height="14.8541" filterUnits="userSpaceOnUse" color-interpolation-filters="sRGB">
<feFlood flood-opacity="0" result="BackgroundImageFix"/>
<feBlend mode="normal" in="SourceGraphic" in2="BackgroundImageFix" result="shape"/>
<feGaussianBlur stdDeviation="1" result="effect1_foregroundBlur_78_6"/>
</filter>
<filter id="filter11_f_78_6" x="25.2936" y="64" width="15.4127" height="14.8541" filterUnits="userSpaceOnUse" color-interpolation-filters="sRGB">
<feFlood flood-opacity="0" result="BackgroundImageFix"/>
<feBlend mode="normal" in="SourceGraphic" in2="BackgroundImageFix" result="shape"/>
<feGaussianBlur stdDeviation="1" result="effect1_foregroundBlur_78_6"/>
</filter>
<filter id="filter12_f_78_6" x="0.220276" y="12" width="12.5595" height="12.1406" filterUnits="userSpaceOnUse" color-interpolation-filters="sRGB">
<feFlood flood-opacity="0" result="BackgroundImageFix"/>
<feBlend mode="normal" in="SourceGraphic" in2="BackgroundImageFix" result="shape"/>
<feGaussianBlur stdDeviation="1" result="effect1_foregroundBlur_78_6"/>
</filter>
<filter id="filter13_f_78_6" x="55.4405" y="20" width="21.119" height="20.2812" filterUnits="userSpaceOnUse" color-interpolation-filters="sRGB">
<feFlood flood-opacity="0" result="BackgroundImageFix"/>
<feBlend mode="normal" in="SourceGraphic" in2="BackgroundImageFix" result="shape"/>
<feGaussianBlur stdDeviation="1" result="effect1_foregroundBlur_78_6"/>
</filter>
<filter id="filter14_f_78_6" x="68.2936" y="117" width="15.4127" height="14.8541" filterUnits="userSpaceOnUse" color-interpolation-filters="sRGB">
<feFlood flood-opacity="0" result="BackgroundImageFix"/>
<feBlend mode="normal" in="SourceGraphic" in2="BackgroundImageFix" result="shape"/>
<feGaussianBlur stdDeviation="1" result="effect1_foregroundBlur_78_6"/>
</filter>
<filter id="filter15_f_78_6" x="9.29364" y="137" width="15.4127" height="14.8541" filterUnits="userSpaceOnUse" color-interpolation-filters="sRGB">
<feFlood flood-opacity="0" result="BackgroundImageFix"/>
<feBlend mode="normal" in="SourceGraphic" in2="BackgroundImageFix" result="shape"/>
<feGaussianBlur stdDeviation="1" result="effect1_foregroundBlur_78_6"/>
</filter>
</defs>
</svg>
