<svg width="43" height="31" viewBox="0 0 43 31" fill="none" xmlns="http://www.w3.org/2000/svg">
<path d="M43 13.3818C43 21.2994 39.0395 23 33.7786 23H4.71485C1.81045 23 1.0853 20.54 0.732456 19.7744C-0.896821 16.3698 0.489506 12.854 2.00032 10.7333C4.97953 6.55151 11.1744 6.73737 14.6265 8.50303C14.4847 5.11111 15.8599 0 23.1386 0C30.2817 0 31.1587 5.08883 30.9636 7.59024C33.1946 5.36465 43 4.61075 43 13.3818Z" fill="#D0D0D0"/>
<path d="M6.90909 26.5932L9.45455 23.7119L11.6818 21L9.45455 25.4444L12 24.8983L5 31L8.97727 26.4237L6.90909 26.5932Z" fill="#FFF068"/>
<path d="M17.9091 24.5932L20.4545 21.7119L22.6818 19L20.4545 23.4444L23 22.8983L16 29L19.9773 24.4237L17.9091 24.5932Z" fill="#FFF068"/>
<path d="M28.9091 26.5932L31.4545 23.7119L33.6818 21L31.4545 25.4444L34 24.8983L27 31L30.9773 26.4237L28.9091 26.5932Z" fill="#FFF068"/>
</svg>
