<svg width="43" height="34" viewBox="0 0 43 34" fill="none" xmlns="http://www.w3.org/2000/svg">
<path d="M43 13.3818C43 21.2994 39.0395 23 33.7786 23H4.71485C1.81045 23 1.0853 20.54 0.732456 19.7744C-0.896821 16.3698 0.489506 12.854 2.00032 10.7333C4.97953 6.55151 11.1744 6.73737 14.6265 8.50303C14.4847 5.11111 15.8599 0 23.1386 0C30.2817 0 31.1587 5.08883 30.9636 7.59024C33.1946 5.36465 43 4.61075 43 13.3818Z" fill="#D0D0D0"/>
<path d="M6.90909 26.5932L9.45455 23.7119L11.6818 21L9.45455 25.4444L12 24.8983L5 31L8.97727 26.4237L6.90909 26.5932Z" fill="#FFF068"/>
<path d="M17.9091 24.5932L20.4545 21.7119L22.6818 19L20.4545 23.4444L23 22.8983L16 29L19.9773 24.4237L17.9091 24.5932Z" fill="#FFF068"/>
<path d="M28.9091 26.5932L31.4545 23.7119L33.6818 21L31.4545 25.4444L34 24.8983L27 31L30.9773 26.4237L28.9091 26.5932Z" fill="#FFF068"/>
<path d="M33.6072 28.8751C34.9555 28.3848 35.1471 27.2296 35.3908 26.4861C35.1122 27.7013 35.3764 28.5479 35.4863 29.3059C35.5962 30.0638 35.0561 31.1864 34.0187 31.2344C32.984 31.2822 32.3733 30.4413 32.3682 30.1644C32.3631 29.8875 32.3016 29.3499 33.6072 28.8751Z" fill="#3DB9FF"/>
<path d="M2.60721 28.8751C3.95555 28.3848 4.14711 27.2296 4.3908 26.4861C4.11224 27.7013 4.37636 28.5479 4.48628 29.3059C4.59619 30.0638 4.05606 31.1864 3.01866 31.2344C1.984 31.2822 1.37328 30.4413 1.36821 30.1644C1.36315 29.8875 1.30163 29.3499 2.60721 28.8751Z" fill="#3DB9FF"/>
<path d="M13.6072 25.8751C14.9555 25.3848 15.1471 24.2296 15.3908 23.4861C15.1122 24.7013 15.3764 25.5479 15.4863 26.3059C15.5962 27.0638 15.0561 28.1864 14.0187 28.2344C12.984 28.2822 12.3733 27.4413 12.3682 27.1644C12.3631 26.8875 12.3016 26.3499 13.6072 25.8751Z" fill="#3DB9FF"/>
<path d="M19.6072 30.8751C20.9555 30.3848 21.1471 29.2296 21.3908 28.4861C21.1122 29.7013 21.3764 30.5479 21.4863 31.3059C21.5962 32.0638 21.0561 33.1864 20.0187 33.2344C18.984 33.2822 18.3733 32.4413 18.3682 32.1644C18.3631 31.8875 18.3016 31.3499 19.6072 30.8751Z" fill="#3DB9FF"/>
<path d="M25.6072 25.8751C26.9555 25.3848 27.1471 24.2296 27.3908 23.4861C27.1122 24.7013 27.3764 25.5479 27.4863 26.3059C27.5962 27.0638 27.0561 28.1864 26.0187 28.2344C24.984 28.2822 24.3733 27.4413 24.3682 27.1644C24.3631 26.8875 24.3016 26.3499 25.6072 25.8751Z" fill="#3DB9FF"/>
</svg>
